<svg width="2319" height="277" viewBox="0 0 2319 277" fill="none" xmlns="http://www.w3.org/2000/svg">
<path d="M118.3 4.19578C114.888 4.19578 111.476 4.19576 108.128 4.5594H0V270.683H118.3C136.971 271.345 155.59 268.388 173.044 261.99C190.497 255.592 206.427 245.884 219.881 233.446C233.334 221.008 244.035 206.095 251.345 189.6C258.654 173.104 262.421 155.364 262.421 137.44C262.421 119.515 258.654 101.775 251.345 85.2794C244.035 68.7837 233.334 53.8711 219.881 41.433C206.427 28.9948 190.497 19.2865 173.044 12.8885C155.59 6.49042 136.971 3.53399 118.3 4.19578V4.19578ZM118.3 206.986L68.8001 206.531V68.6509H118.3C137.466 68.5597 155.893 75.7375 169.568 88.6208C176.318 94.9847 181.673 102.579 185.319 110.958C188.964 119.337 190.826 128.33 190.795 137.409C190.762 155.847 183.114 173.521 169.527 186.561C155.939 199.601 137.519 206.946 118.3 206.986V206.986Z" fill="#C4831E"/>
<path d="M633.228 116.712V270.683H578.042V252.501C555.008 266.537 528.208 273.828 500.922 273.482C473.636 273.136 447.047 265.169 424.407 250.554C401.767 235.94 384.058 215.312 373.446 191.195C362.834 167.077 359.78 140.516 364.657 114.759C369.533 89.0024 382.13 65.1677 400.905 46.1707C419.68 27.1736 443.819 13.8379 470.371 7.79481C496.922 1.75175 524.734 3.26338 550.403 12.1448C576.073 21.0262 598.488 36.8924 614.906 57.8023L559.342 94.4997C549.337 82.7552 535.634 74.4377 520.287 70.7935C504.94 67.1494 488.775 68.3749 474.214 74.2865C459.654 80.1982 447.483 90.4775 439.526 103.584C431.569 116.69 428.254 131.917 430.078 146.983C431.901 162.049 438.766 176.142 449.642 187.15C460.519 198.158 474.821 205.488 490.406 208.042C505.991 210.595 522.019 208.234 536.087 201.313C550.155 194.392 561.507 183.283 568.44 169.652H495.786V116.712H633.228Z" fill="#313131"/>
<path d="M996.751 4.55933V154.682C996.751 155.682 996.751 156.712 996.751 157.712C995.131 188.772 981.128 218.047 957.639 239.48C934.15 260.914 902.972 272.867 870.554 272.867C838.136 272.867 806.959 260.914 783.47 239.48C759.981 218.047 745.978 188.772 744.358 157.712C744.358 156.712 744.358 155.682 744.358 154.682V4.55933H812.052V151.44C812.052 152.5 812.052 153.591 812.052 154.682C812.052 155.773 812.052 156.712 812.052 157.712C812.902 172.029 819.43 185.491 830.296 195.338C841.162 205.185 855.543 210.671 870.491 210.671C885.439 210.671 899.82 205.185 910.686 195.338C921.552 185.491 928.08 172.029 928.93 157.712C928.93 156.712 928.93 155.712 928.93 154.682C928.93 153.652 928.93 152.5 928.93 151.44V4.55933H996.751Z" fill="#313131"/>
<path d="M1183.94 68.6812V109.136H1307.2V166.591H1183.94V206.531H1329.38V270.714H1117.1V4.55933H1329.38V68.6812H1183.94Z" fill="#313131"/>
<path d="M2001.46 4.55933V68.6812H1916.74V268.107H1843.96V68.6812H1759.23V4.55933H2001.46Z" fill="#313131"/>
<path d="M2176.02 70.8023C2168.56 88.1055 2193.08 95.045 2193.08 95.045C2247.28 116.985 2285.66 137.258 2285.76 137.318C2320.5 153.682 2318.77 195.319 2318.77 195.319C2318.77 283.956 2204.76 276.865 2204.76 276.865C2095.31 276.865 2098.72 188.5 2098.72 188.5H2166.64C2168.34 220.501 2208.05 221.834 2225.9 218.289C2232.88 216.834 2242.99 211.44 2245.77 205.137C2252.49 189.985 2223.65 178.228 2223.65 178.228C2186.76 162.53 2153.08 147.197 2137.45 140.045C2111.07 127.924 2102.7 102.772 2100.17 89.7722C2099.26 85.0686 2098.94 80.2762 2099.23 75.4994C2104.44 -6.62271 2212.95 0.134957 2212.95 0.134957C2322.4 0.134957 2318.99 88.4994 2318.99 88.4994H2249.34C2247.79 50.6809 2209.66 55.0143 2191.81 58.7416C2188.36 59.3884 2185.13 60.8219 2182.38 62.9212C2179.63 65.0204 2177.45 67.7235 2176.02 70.8023Z" fill="#313131"/>
<path d="M1517.77 70.8023C1510.31 88.1055 1534.83 95.045 1534.83 95.045C1589.03 116.985 1627.41 137.258 1627.51 137.318C1662.25 153.682 1660.52 195.319 1660.52 195.319C1660.52 283.956 1546.51 276.865 1546.51 276.865C1437.06 276.865 1440.47 188.5 1440.47 188.5H1508.39C1510.09 220.501 1549.8 221.834 1567.65 218.289C1574.63 216.834 1584.74 211.44 1587.52 205.137C1594.24 189.985 1565.4 178.228 1565.4 178.228C1528.51 162.53 1494.83 147.197 1479.2 140.045C1452.82 127.924 1444.45 102.772 1441.92 89.7722C1441.01 85.0686 1440.69 80.2762 1440.98 75.4994C1446.19 -6.62271 1554.7 0.134957 1554.7 0.134957C1664.15 0.134957 1660.74 88.4994 1660.74 88.4994H1591.24C1589.7 50.6809 1551.57 55.0143 1533.72 58.7416C1530.24 59.366 1526.98 60.7893 1524.2 62.8897C1521.42 64.9902 1519.21 67.7051 1517.77 70.8023Z" fill="#313131"/>
</svg>
